<?xml version="1.0" encoding="iso-8859-1"?>
<!-- Generator: Adobe Illustrator 19.0.0, SVG Export Plug-In . SVG Version: 6.00 Build 0)  -->
<svg version="1.1" id="Layer_1" xmlns="http://www.w3.org/2000/svg" xmlns:xlink="http://www.w3.org/1999/xlink" x="0px" y="0px"
	 viewBox="0 0 512 512" style="enable-background:new 0 0 512 512;" xml:space="preserve">
<g>
	<path style="fill:#38454F;" d="M512,317.793H0V48.552c0-17.064,13.833-30.897,30.897-30.897h450.207
		c17.064,0,30.897,13.833,30.897,30.897V317.793z"/>
	<path style="fill:#E8EDEE;" d="M361.931,494.345H150.069c0-19.5,15.81-35.31,35.31-35.31h141.241
		C346.121,459.034,361.931,474.845,361.931,494.345"/>
	<polygon style="fill:#B0B6BB;" points="317.793,459.034 194.207,459.034 211.862,388.414 300.138,388.414 	"/>
	<path style="fill:#E8EDEE;" d="M481.103,388.414H30.897C13.833,388.414,0,374.581,0,357.517v-39.724h512v39.724
		C512,374.581,498.167,388.414,481.103,388.414"/>
	<g>
		<path style="fill:#25AE88;" d="M141.241,203.034c-24.753,0-44.138-18.529-44.138-42.178c0-4.873,3.955-8.828,8.828-8.828
			c4.873,0,8.828,3.955,8.828,8.828c0,13.983,11.388,24.523,26.483,24.523c9.251,0,16.057-2.498,20.233-7.433
			c2.26-2.675,3.302-6.135,2.922-9.746c-0.406-3.884-2.401-7.486-5.491-9.878l-46.168-35.911
			c-6.859-5.341-11.308-13.356-12.209-21.99c-0.883-8.439,1.607-16.605,7-22.987c8.413-9.94,20.701-15.642,33.713-15.642
			c24.338,0,44.138,19.8,44.138,44.138c0,4.873-3.955,8.828-8.828,8.828c-4.873,0-8.828-3.955-8.828-8.828
			c0-14.601-11.882-26.483-26.483-26.483c-7.804,0-15.183,3.425-20.233,9.393c-2.26,2.675-3.302,6.135-2.922,9.754
			c0.406,3.875,2.401,7.477,5.491,9.878l46.168,35.902c6.859,5.341,11.308,13.356,12.209,21.99
			c0.883,8.448-1.607,16.614-7.009,22.987C167.265,198.435,155.93,203.034,141.241,203.034"/>
		<path style="fill:#25AE88;" d="M141.241,79.448c-4.873,0-8.828-3.955-8.828-8.828V52.966c0-4.873,3.955-8.828,8.828-8.828
			s8.828,3.955,8.828,8.828v17.655C150.069,75.494,146.114,79.448,141.241,79.448"/>
		<path style="fill:#25AE88;" d="M141.241,220.69c-4.873,0-8.828-3.955-8.828-8.828v-15.695c0-4.873,3.955-8.828,8.828-8.828
			s8.828,3.955,8.828,8.828v15.695C150.069,216.735,146.114,220.69,141.241,220.69"/>
	</g>
	<g>
		<path style="fill:#DD691D;" d="M450.207,97.103h-70.621c-4.873,0-8.828-3.955-8.828-8.828c0-4.873,3.955-8.828,8.828-8.828h70.621
			c4.882,0,8.828,3.955,8.828,8.828C459.034,93.149,455.089,97.103,450.207,97.103"/>
		<path style="fill:#DD691D;" d="M450.207,150.069H317.793c-4.873,0-8.828-3.955-8.828-8.828s3.955-8.828,8.828-8.828h132.414
			c4.882,0,8.828,3.955,8.828,8.828S455.089,150.069,450.207,150.069"/>
		<path style="fill:#DD691D;" d="M450.207,203.034h-44.138c-4.873,0-8.828-3.955-8.828-8.828s3.955-8.828,8.828-8.828h44.138
			c4.882,0,8.828,3.955,8.828,8.828S455.089,203.034,450.207,203.034"/>
		<path style="fill:#DD691D;" d="M450.207,256h-70.621c-4.873,0-8.828-3.955-8.828-8.828c0-4.873,3.955-8.828,8.828-8.828h70.621
			c4.882,0,8.828,3.955,8.828,8.828C459.034,252.045,455.089,256,450.207,256"/>
	</g>
	<g>
		<path style="fill:#ECBA16;" d="M176.552,291.31h-70.621c-4.873,0-8.828-3.955-8.828-8.828s3.955-8.828,8.828-8.828h70.621
			c4.873,0,8.828,3.955,8.828,8.828S181.425,291.31,176.552,291.31"/>
		<path style="fill:#ECBA16;" d="M220.69,291.31c-2.295,0-4.59-0.971-6.268-2.56c-0.353-0.441-0.706-0.883-1.059-1.324
			c-0.353-0.53-0.618-1.059-0.794-1.589c-0.265-0.53-0.441-1.059-0.53-1.589c-0.088-0.618-0.177-1.148-0.177-1.766
			c0-1.148,0.265-2.295,0.706-3.354c0.441-1.059,1.059-2.03,1.854-2.913c3.354-3.266,9.181-3.266,12.535,0
			c0.794,0.883,1.412,1.854,1.854,2.913c0.441,1.059,0.706,2.207,0.706,3.354c0,0.618-0.088,1.148-0.177,1.766
			c-0.088,0.53-0.265,1.059-0.53,1.589c-0.177,0.53-0.441,1.059-0.794,1.589c-0.353,0.441-0.706,0.883-1.059,1.324
			C225.28,290.339,222.985,291.31,220.69,291.31"/>
		<path style="fill:#ECBA16;" d="M220.69,256h-26.483c-4.873,0-8.828-3.955-8.828-8.828c0-4.873,3.955-8.828,8.828-8.828h26.483
			c4.873,0,8.828,3.955,8.828,8.828C229.517,252.045,225.562,256,220.69,256"/>
		<path style="fill:#ECBA16;" d="M123.586,256h-17.655c-4.873,0-8.828-3.955-8.828-8.828c0-4.873,3.955-8.828,8.828-8.828h17.655
			c4.873,0,8.828,3.955,8.828,8.828C132.414,252.045,128.459,256,123.586,256"/>
		<path style="fill:#ECBA16;" d="M158.897,256c-2.295,0-4.59-0.971-6.268-2.56c-0.353-0.441-0.794-0.883-1.059-1.324
			c-0.353-0.53-0.618-1.059-0.794-1.589c-0.265-0.53-0.441-1.059-0.53-1.589c-0.088-0.618-0.177-1.148-0.177-1.766
			c0-2.295,0.971-4.59,2.56-6.268c2.03-2.03,5.12-3.001,8.033-2.383c0.53,0.088,1.059,0.265,1.589,0.53
			c0.53,0.177,1.059,0.441,1.589,0.794c0.441,0.353,0.883,0.706,1.324,1.059c1.589,1.677,2.56,3.972,2.56,6.268
			c0,0.618-0.088,1.148-0.177,1.766c-0.088,0.53-0.265,1.059-0.53,1.589c-0.177,0.53-0.441,1.059-0.794,1.589
			c-0.353,0.441-0.706,0.883-1.059,1.324c-0.441,0.353-0.883,0.706-1.324,1.059c-0.53,0.353-1.059,0.618-1.589,0.794
			c-0.53,0.265-1.059,0.441-1.589,0.53C160.044,255.912,159.514,256,158.897,256"/>
	</g>
	<path style="fill:#DD691D;" d="M450.207,273.655c-4.882,0-8.828-3.955-8.828-8.828V70.621c0-4.873,3.946-8.828,8.828-8.828
		c4.882,0,8.828,3.955,8.828,8.828v194.207C459.034,269.7,455.089,273.655,450.207,273.655"/>
</g>
<g>
</g>
<g>
</g>
<g>
</g>
<g>
</g>
<g>
</g>
<g>
</g>
<g>
</g>
<g>
</g>
<g>
</g>
<g>
</g>
<g>
</g>
<g>
</g>
<g>
</g>
<g>
</g>
<g>
</g>
</svg>
