<?xml version="1.0"?>
<svg xmlns="http://www.w3.org/2000/svg" xmlns:xlink="http://www.w3.org/1999/xlink" version="1.1" id="Capa_1" x="0px" y="0px" viewBox="0 0 496.485 496.485" style="enable-background:new 0 0 496.485 496.485;" xml:space="preserve" width="512px" height="512px" class=""><g><g><circle style="fill:#FF6700" cx="273.067" cy="96.97" r="45.77" data-original="#FF6700" class="" data-old_color="#ff6700"/><path style="fill:#FFFFFF;" d="M7.758,448.388c0,22.497,17.842,40.339,40.339,40.339h400.291c22.497,0,40.339-17.842,40.339-40.339  H7.758z" data-original="#FFFFFF" class=""/><path style="fill:#2B3238" d="M488.727,440.63H7.758c-4.655,0-7.758,3.103-7.758,7.758c0,26.376,21.721,48.097,48.097,48.097  h400.291c26.376,0,48.097-21.721,48.097-48.097C496.485,443.733,493.382,440.63,488.727,440.63z M448.388,480.97H48.097  c-15.515,0-27.927-10.861-31.806-24.824h463.903C476.315,470.109,463.903,480.97,448.388,480.97z" data-original="#2B3238" class="" data-old_color="#2b3238"/><rect x="34.909" y="203.248" style="fill:#008AFF" width="425.891" height="245.139" data-original="#008AFF" class="active-path" data-old_color="#008aff"/><path style="fill:#2B3238" d="M461.576,456.145H34.909c-4.655,0-7.758-3.103-7.758-7.758V203.248c0-4.655,3.103-7.758,7.758-7.758  H460.8c4.655,0,7.758,3.103,7.758,7.758v245.139C469.333,452.267,465.455,456.145,461.576,456.145z M42.667,440.63h410.376V211.006  H42.667V440.63z" data-original="#2B3238" class="" data-old_color="#2b3238"/><rect x="66.715" y="234.279" style="fill:#FFFFFF;" width="363.83" height="183.079" data-original="#FFFFFF" class=""/><polygon style="fill:#64B800" points="202.473,7.758 7.758,7.758 7.758,131.879 110.158,131.879 164.461,178.424 164.461,131.879   202.473,131.879 " data-original="#64B800" class="" data-old_color="#64b800"/><path style="fill:#2B3238" d="M164.461,186.182c-1.552,0-3.879-0.776-4.655-1.552l-51.976-44.994H7.758  c-4.655,0-7.758-3.103-7.758-7.758V7.758C0,3.103,3.103,0,7.758,0h194.715c4.655,0,7.758,3.103,7.758,7.758v124.121  c0,4.655-3.103,7.758-7.758,7.758h-30.255v38.788c0,3.103-1.552,5.43-4.655,6.982C166.788,186.182,165.236,186.182,164.461,186.182z   M15.515,124.121h94.642c1.552,0,3.879,0.776,4.655,1.552l41.115,34.909v-28.703c0-4.655,3.103-7.758,7.758-7.758h30.255V15.515  H15.515V124.121z" data-original="#2B3238" class="" data-old_color="#2b3238"/><rect x="38.788" y="38.788" style="fill:#FFFFFF;" width="132.655" height="62.061" data-original="#FFFFFF" class=""/><g>
	<rect x="59.733" y="62.061" style="fill:#2B3238" width="15.515" height="15.515" data-original="#2B3238" class="" data-old_color="#2b3238"/>
	<rect x="97.745" y="62.061" style="fill:#2B3238" width="15.515" height="15.515" data-original="#2B3238" class="" data-old_color="#2b3238"/>
	<rect x="134.982" y="62.061" style="fill:#2B3238" width="15.515" height="15.515" data-original="#2B3238" class="" data-old_color="#2b3238"/>
</g><path style="fill:#894EEB" d="M407.273,7.758H363.83c-8.533,0-15.515,6.982-15.515,15.515v36.461h74.473V23.273  C422.788,14.739,415.806,7.758,407.273,7.758z" data-original="#894EEB" class="" data-old_color="#894eeb"/><path style="fill:#2B3238" d="M422.788,67.491h-74.473c-2.327,0-3.879-0.776-5.43-2.327s-3.103-3.103-3.103-5.43V23.273  C339.782,10.085,349.867,0,363.055,0h43.442c13.188,0,23.273,10.085,23.273,23.273v36.461  C430.545,64.388,426.667,67.491,422.788,67.491z M355.297,51.976h58.958V23.273c0-4.655-3.103-7.758-7.758-7.758h-43.442  c-4.655,0-7.758,3.103-7.758,7.758V51.976z" data-original="#2B3238" class="" data-old_color="#2b3238"/><polygon style="fill:#FF6700" points="422.788,252.121 347.539,252.121 384.776,323.491 " data-original="#FF6700" class="" data-old_color="#ff6700"/><path style="fill:#2B3238" d="M384.776,331.249L384.776,331.249c-3.103,0-5.43-1.552-6.982-3.879L340.558,256  c-1.552-2.327-0.776-5.43,0-7.758c1.552-2.327,3.879-3.879,6.982-3.879l0,0h74.473c2.327,0,5.43,1.552,6.982,3.879  c1.552,2.327,1.552,5.43,0,7.758l-37.236,71.37C390.982,329.697,387.879,331.249,384.776,331.249z M360.727,259.879l24.824,47.321  l24.824-47.321H360.727z" data-original="#2B3238" class="" data-old_color="#2b3238"/><rect x="347.539" y="59.733" style="fill:#E1E6E9;" width="74.473" height="191.612" data-original="#E1E6E9" class=""/><path style="fill:#2B3238" d="M422.788,259.879L422.788,259.879h-74.473c-4.655,0-7.758-3.103-7.758-7.758V59.733  c0-4.655,3.103-7.758,7.758-7.758h74.473c2.327,0,3.879,0.776,5.43,2.327c1.552,1.552,2.327,3.103,2.327,5.43v191.612  c0,2.327-0.776,3.879-2.327,5.43C426.667,258.327,424.339,259.879,422.788,259.879z M355.297,244.364h58.958V68.267h-58.958V244.364  z" data-original="#2B3238" class="" data-old_color="#2b3238"/><rect x="372.364" y="83.006" style="fill:#FFFFFF;" width="24.824" height="145.067" data-original="#FFFFFF" class=""/><path style="fill:#2B3238" d="M277.721,108.606h-9.309v-4.655c0-2.327,0-3.879,0.776-4.655c0.776-0.776,1.552-2.327,3.103-3.879  l6.206-6.206c1.552-1.552,1.552-3.103,1.552-4.655s-0.776-3.879-1.552-4.655c-1.552-1.552-3.103-2.327-4.655-2.327  c-2.327,0-3.879,0.776-5.43,1.552c-1.552,1.552-2.327,3.103-2.327,4.655H256c0.776-4.655,2.327-8.533,5.43-10.861  c3.103-2.327,6.982-3.879,11.636-3.879s8.533,1.552,11.636,3.879c3.103,2.327,4.655,6.206,4.655,10.861  c0,3.103-0.776,6.206-2.327,7.758c-0.776,1.552-1.552,2.327-2.327,3.103c-0.776,0.776-1.552,1.552-2.327,2.327  c-0.776,0.776-1.552,1.552-2.327,2.327c-0.776,0.776-0.776,0.776-1.552,1.552c-0.776,1.552-1.552,3.103-1.552,4.655v3.103H277.721z   M273.842,126.448c-1.552,0-3.103-0.776-4.655-1.552c-1.552-0.776-1.552-2.327-1.552-3.879s0.776-3.103,1.552-3.879  c1.552-1.552,2.327-1.552,4.655-1.552c1.552,0,3.103,0.776,4.655,1.552c1.552,0.776,1.552,2.327,1.552,3.879  s-0.776,3.103-1.552,3.879C276.945,125.673,275.394,126.448,273.842,126.448z" data-original="#2B3238" class="" data-old_color="#2b3238"/><rect x="81.455" y="249.794" style="fill:#894EEB" width="148.17" height="100.073" data-original="#894EEB" class="" data-old_color="#894eeb"/><polygon style="fill:#FFFFFF;" points="137.309,278.497 137.309,320.388 174.545,299.442 " data-original="#FFFFFF" class=""/><rect x="271.515" y="380.121" style="fill:#894EEB" width="54.303" height="36.461" data-original="#894EEB" class="" data-old_color="#894eeb"/><polygon style="fill:#FFFFFF;" points="291.685,390.982 291.685,406.497 305.648,398.739 " data-original="#FFFFFF" class=""/><rect x="271.515" y="329.697" style="fill:#894EEB" width="54.303" height="36.461" data-original="#894EEB" class="" data-old_color="#894eeb"/><polygon style="fill:#FFFFFF;" points="291.685,340.558 291.685,356.073 305.648,348.315 " data-original="#FFFFFF" class=""/><rect x="271.515" y="279.273" style="fill:#894EEB" width="54.303" height="36.461" data-original="#894EEB" class="" data-old_color="#894eeb"/><polygon style="fill:#FFFFFF;" points="291.685,290.133 291.685,304.873 305.648,297.891 " data-original="#FFFFFF" class=""/><g>
	<rect x="356.073" y="390.982" style="fill:#2B3238" width="45.77" height="15.515" data-original="#2B3238" class="" data-old_color="#2b3238"/>
	<rect x="356.073" y="340.558" style="fill:#2B3238" width="45.77" height="15.515" data-original="#2B3238" class="" data-old_color="#2b3238"/>
</g></g></g> </svg>
